<svg xmlns="http://www.w3.org/2000/svg" preserveAspectRatio="xMinYMin meet" viewBox="0 0 529.02 196.93"><defs><style>.cls-1{fill:#231f20;}.cls-2{fill:#ee334e;}.cls-3{fill:#ffd046;}</style></defs><title>Asset 1</title><g id="Layer_2" data-name="Layer 2"><g id="Layer_1-2" data-name="Layer 1"><path class="cls-1" d="M223,40.73a14.58,14.58,0,0,1,3.9.51,9.57,9.57,0,0,1,3.22,1.57,7.54,7.54,0,0,1,2.2,2.71,8.76,8.76,0,0,1,.81,3.9,9.38,9.38,0,0,1-1.63,5.51,7.5,7.5,0,0,1-4.86,3V58a7.52,7.52,0,0,1,2.71.86,5.42,5.42,0,0,1,1.75,1.61,6.65,6.65,0,0,1,1,2.27,16.6,16.6,0,0,1,.4,2.78c0,.56.06,1.24.09,2s.1,1.63.19,2.45a14.94,14.94,0,0,0,.44,2.34,4.42,4.42,0,0,0,.82,1.7h-3.5a4,4,0,0,1-.45-1.14,10.48,10.48,0,0,1-.23-1.4c-.05-.48-.09-1-.12-1.43s-.06-.87-.09-1.21c-.06-1.18-.16-2.36-.3-3.53a9.63,9.63,0,0,0-.89-3.12,5.53,5.53,0,0,0-2-2.22,6,6,0,0,0-3.53-.75h-12v14.8h-3.17V40.73Zm-.23,15.83a8.66,8.66,0,0,0,2.75-.44,7,7,0,0,0,2.29-1.29,6.27,6.27,0,0,0,1.56-2,6.09,6.09,0,0,0,.59-2.73,6.56,6.56,0,0,0-1.78-4.86c-1.18-1.18-3-1.77-5.41-1.77H210.9V56.56Z"/><path class="cls-1" d="M253.49,40.73V74.07h-3.17V40.73Z"/><path class="cls-1" d="M275.16,40.73l19.43,28.21h.09V40.73h3.18V74.07h-3.55l-19.43-28.2h-.09v28.2h-3.18V40.73Z"/><path class="cls-1" d="M341.89,74.07,341.47,68h-.09a11.08,11.08,0,0,1-2.08,3.06,11,11,0,0,1-2.73,2.1,11.84,11.84,0,0,1-3.2,1.19,16.36,16.36,0,0,1-3.52.38A15.7,15.7,0,0,1,323,73.3,14.39,14.39,0,0,1,318,69.5,16.14,16.14,0,0,1,315.09,64a22.61,22.61,0,0,1,0-13.17A16.38,16.38,0,0,1,318,45.28,14.22,14.22,0,0,1,323,41.45,15.7,15.7,0,0,1,329.85,40a17.07,17.07,0,0,1,4.95.7,12.89,12.89,0,0,1,4.15,2.1A12.66,12.66,0,0,1,342,46.29a13.34,13.34,0,0,1,1.73,4.81h-3.17a7.66,7.66,0,0,0-1-2.92,10.28,10.28,0,0,0-2.2-2.69,11,11,0,0,0-3.29-2,11.3,11.3,0,0,0-4.29-.77,12.05,12.05,0,0,0-5.7,1.26,11.2,11.2,0,0,0-3.9,3.34A14.33,14.33,0,0,0,318,52a20,20,0,0,0,0,10.72,14.39,14.39,0,0,0,2.24,4.72,11.28,11.28,0,0,0,3.9,3.33,11.93,11.93,0,0,0,5.7,1.27,12.58,12.58,0,0,0,4.92-.92,10.2,10.2,0,0,0,3.67-2.54,10.75,10.75,0,0,0,2.24-3.88,14.57,14.57,0,0,0,.7-4.9H330V57.12h14.15V74.07Z"/><path class="cls-1" d="M384.53,40.73v2.71H364.68V55.49h18.59V58.2H364.68V71.37h20.08v2.7H361.51V40.73Z"/><path class="cls-1" d="M415.68,40.73a14.58,14.58,0,0,1,3.9.51,9.57,9.57,0,0,1,3.22,1.57A7.42,7.42,0,0,1,425,45.52a8.63,8.63,0,0,1,.82,3.9,9.38,9.38,0,0,1-1.63,5.51,7.5,7.5,0,0,1-4.86,3V58a7.52,7.52,0,0,1,2.71.86,5.42,5.42,0,0,1,1.75,1.61,6.65,6.65,0,0,1,1,2.27,16.6,16.6,0,0,1,.4,2.78c0,.56.06,1.24.09,2s.1,1.63.19,2.45a14.94,14.94,0,0,0,.44,2.34,4.42,4.42,0,0,0,.82,1.7h-3.5a4,4,0,0,1-.45-1.14,10.48,10.48,0,0,1-.23-1.4c0-.48-.09-1-.12-1.43s-.06-.87-.09-1.21c-.06-1.18-.16-2.36-.3-3.53a9.63,9.63,0,0,0-.89-3.12,5.53,5.53,0,0,0-2-2.22,6,6,0,0,0-3.53-.75H403.58v14.8h-3.17V40.73Zm-.24,15.83a8.67,8.67,0,0,0,2.76-.44,7,7,0,0,0,2.29-1.29,6.27,6.27,0,0,0,1.56-2,6.09,6.09,0,0,0,.59-2.73,6.6,6.6,0,0,0-1.78-4.86q-1.77-1.77-5.42-1.77H403.58V56.56Z"/><path class="cls-1" d="M446.17,40.73V74.07H443V40.73Z"/><path class="cls-1" d="M467.51,40.73V58.66l19.38-17.93h4.3l-14.9,13.78,15.6,19.56h-4.11L473.91,56.7l-6.4,5.93V74.07h-3.17V40.73Z"/><path class="cls-1" d="M528.78,40.73v2.71H508.94V55.49h18.58V58.2H508.94V71.37H529v2.7H505.76V40.73Z"/><path class="cls-1" d="M210.67,96.77V114.7l19.38-17.93h4.3l-14.9,13.78,15.6,19.56h-4.11l-13.87-17.37-6.4,5.93v11.44h-3.18V96.77Z"/><path class="cls-1" d="M252.09,106.86a16.73,16.73,0,0,1,2.94-5.54A14.22,14.22,0,0,1,260,97.49a15.73,15.73,0,0,1,6.89-1.42,15.57,15.57,0,0,1,6.86,1.42,14.34,14.34,0,0,1,4.91,3.83,16.73,16.73,0,0,1,2.94,5.54,22.61,22.61,0,0,1,0,13.17,16.49,16.49,0,0,1-2.94,5.51,14.5,14.5,0,0,1-4.91,3.8,15.57,15.57,0,0,1-6.86,1.43,15.73,15.73,0,0,1-6.89-1.43,14.39,14.39,0,0,1-4.93-3.8,16.49,16.49,0,0,1-2.94-5.51,22.61,22.61,0,0,1,0-13.17ZM255,118.79a14.24,14.24,0,0,0,2.24,4.71,11.2,11.2,0,0,0,3.9,3.34,12.05,12.05,0,0,0,5.7,1.26,11.87,11.87,0,0,0,5.67-1.26,11.32,11.32,0,0,0,3.88-3.34,14.24,14.24,0,0,0,2.24-4.71,20.31,20.31,0,0,0,0-10.72,14.33,14.33,0,0,0-2.24-4.69,11.32,11.32,0,0,0-3.88-3.34,11.87,11.87,0,0,0-5.67-1.26,12.05,12.05,0,0,0-5.7,1.26,11.2,11.2,0,0,0-3.9,3.34,14.33,14.33,0,0,0-2.24,4.69,20.31,20.31,0,0,0,0,10.72Z"/><path class="cls-1" d="M307.24,96.77,318.31,126,329.8,96.77h4.67v33.34h-3.18V101.3h-.09l-11.39,28.81h-3l-11-28.81h-.09v28.81h-3.18V96.77Z"/><path class="cls-1" d="M360.76,96.77,371.83,126l11.49-29.23H388v33.34h-3.18V101.3h-.09l-11.4,28.81h-3l-11-28.81h-.09v28.81h-3.18V96.77Z"/><path class="cls-1" d="M412.55,96.77v20.64a16.46,16.46,0,0,0,.65,4.93,8.27,8.27,0,0,0,1.92,3.31,7.4,7.4,0,0,0,3.08,1.87,13.38,13.38,0,0,0,4.11.58,13.62,13.62,0,0,0,4.16-.58,7.4,7.4,0,0,0,3.08-1.87,8.14,8.14,0,0,0,1.91-3.31,16.12,16.12,0,0,0,.66-4.93V96.77h3.17v21.34a16.32,16.32,0,0,1-.72,4.88,10.71,10.71,0,0,1-2.29,4,10.85,10.85,0,0,1-4,2.73,17.91,17.91,0,0,1-11.86,0,10.89,10.89,0,0,1-4-2.73,10.57,10.57,0,0,1-2.29-4,16,16,0,0,1-.73-4.88V96.77Z"/><path class="cls-1" d="M460.32,96.77,479.75,125h.09V96.77H483v33.34h-3.55L460,101.91H460v28.2h-3.18V96.77Z"/><path class="cls-1" d="M527.9,96.77v2.71H508.05v12h18.59v2.7H508.05V127.4h20.08v2.71H504.87V96.77Z"/><path class="cls-2" d="M173.32,0,86.66,0,0,0C.9,47.28,4.88,93.56,28.76,132.79c14.57,23.08,35.77,46.06,57.44,64.14.16-.11.31-.24.46-.35l.46.35c21.68-18.08,42.88-41.06,57.45-64.14C168.44,93.56,172.42,47.28,173.32,0"/><path class="cls-3" d="M86.66,121.76A41.69,41.69,0,1,0,45,80.07a41.7,41.7,0,0,0,41.69,41.69m0-97.58A55.89,55.89,0,1,1,30.78,80.07,55.89,55.89,0,0,1,86.66,24.18"/></g></g></svg>